<?xml version="1.0" encoding="UTF-8"?>
<svg id="Layer_2" data-name="Layer 2" xmlns="http://www.w3.org/2000/svg" viewBox="0 0 1111.33 262.32">
  <g id="Layer_1-2" data-name="Layer 1">
    <path d="M12.83,147.49l30.85-2.51L121.29,21.5l55.31,13.87-.76,190.04-47.97-14.3.42-45.87-64.73,5.35-36.35,58.39L0,214.43l25.87-40.91-6.82.67-6.21-26.71ZM129.42,64.63l-48.06,77.16,47.29-3.67.77-73.49Z"/>
    <path d="M269.72,94.7c-6.92.17-12.72,1.66-17.37,4.47-4.66,2.82-6.95,5.99-6.87,9.54.06,2.7,2.02,4.85,5.86,6.45,3.84,1.6,8.77,3.04,14.8,4.33,6.02,1.29,12.4,2.83,19.11,4.61,6.71,1.78,13.11,4.25,19.18,7.39,6.07,3.15,11.07,7.3,14.99,12.43,3.92,5.14,5.99,11.85,6.18,20.12s-1.86,15.97-6.16,23.08c-4.31,7.11-10.32,13.38-18.04,18.8-7.72,5.42-16.79,9.69-27.18,12.81-10.4,3.12-21.59,4.83-33.57,5.11-16.55.4-29.99-2.24-40.35-7.9-10.36-5.66-15.65-13.47-15.89-23.43-.16-6.75,2.06-12.84,6.66-18.28,4.6-5.43,11.08-9.6,19.46-12.5l30.94,11.92c-7.52,3.39-11.22,7.62-11.1,12.68.06,2.7,1.6,4.99,4.6,6.86,3,1.87,7.71,2.73,14.12,2.57,9.62-.23,17.17-2.48,22.64-6.75,5.47-4.27,8.16-8.51,8.06-12.73-.09-3.54-2.01-6.24-5.77-8.1-3.76-1.85-8.53-3.34-14.3-4.47-5.77-1.13-11.93-2.41-18.46-3.86-6.54-1.45-12.75-3.49-18.64-6.14-5.89-2.65-10.71-6.41-14.46-11.31-3.75-4.89-5.72-11.3-5.91-19.24-.25-10.29,2.86-19.66,9.33-28.09,6.47-8.43,15.26-15.14,26.37-20.14,11.11-4.99,23.51-7.66,37.18-7.99,10.29-.25,19.74.92,28.33,3.5,8.59,2.58,15.52,6.38,20.8,11.41,5.27,5.03,7.99,11,8.16,17.92.11,4.56-.97,8.98-3.23,13.25-2.26,4.28-5.55,7.99-9.87,11.13l-35.79-13.33c3.32-2.27,4.95-4.76,4.89-7.46-.06-2.36-1.67-4.43-4.84-6.22-3.17-1.78-7.79-2.6-13.87-2.45Z"/>
    <path d="M339.1,67.96l37.46-1.66,13.95-41.38,43.16,14.17-8.27,24.77,39.67-1.46-8.9,27.58-40.24,1.73-23.64,70.75c5.43-5.87,11-11.62,16.69-17.25,5.69-5.62,11.52-11.04,17.47-16.25l17.98,20.85c-12.75,10.95-25.1,22.35-37.06,34.21-11.96,11.86-23.53,24.09-34.72,36.68l-43.16-14.17,37.84-112.39-21,1.01-7.24-27.19Z"/>
    <path d="M609.35,73.88l-47.51,142.26-43.16-14.17,22.48-66.16c-10.8,14.45-21.82,28.56-33.06,42.34-11.24,13.78-22.7,27.15-34.38,40.1l-42.4-14.18,47.51-142.26,43.16,14.17-27.2,80.46c13.31-15.52,26.1-31.32,38.39-47.41,12.28-16.09,23.54-32.53,33.78-49.33l42.4,14.18Z"/>
    <path d="M621.33,61.13l21.17-1.27,13.96-41.38,43.16,14.17-8.27,24.77,40.65-1.07-9.87,27.19-40.24,1.73-23.64,70.75c5.43-5.87,10.99-11.62,16.69-17.25,5.69-5.62,11.52-11.04,17.47-16.25l17.98,20.85c-12.75,10.95-25.1,22.35-37.06,34.21-11.96,11.86-23.53,24.09-34.72,36.68l-43.16-14.17,37.84-112.39-21,1.01,9.04-27.58Z"/>
    <path d="M838.08,172.55c-5.98,11.12-14.76,20.24-26.33,27.36-11.57,7.12-24.36,10.85-38.37,11.18-13.17.32-24.16-2.04-32.98-7.06-8.82-5.02-15.49-11.92-20.01-20.68-4.52-8.76-6.91-18.62-7.17-29.6-.15-6.24.21-12.21,1.09-17.89.88-5.68,2.26-11.41,4.15-17.2,4.25-12.94,10.57-24.15,18.95-33.65,8.39-9.49,18.05-16.9,28.98-22.23,10.93-5.33,22.39-8.14,34.38-8.43,15.53-.37,27.98,2.96,37.36,10,9.37,7.04,14.21,16.72,14.51,29.04.37,15.36-6.55,27.9-20.76,37.62-14.21,9.72-34.62,15.99-61.24,18.83l-8.26-16.78c-2.47,9.86-3.61,18.58-3.43,26.18s1.71,13.22,4.6,17.37c2.89,4.15,7.12,6.16,12.69,6.03,5.23-.13,10.16-2.4,14.78-6.82,4.62-4.42,8.52-11.06,11.68-19.92l35.36,16.63ZM798.4,81.78c-5.91.14-11.69,3.66-17.36,10.55-5.66,6.89-10.7,16.9-15.11,30.01,10.27-1.26,18.57-3.61,24.91-7.06,6.33-3.45,10.97-7.36,13.91-11.74,2.94-4.38,4.36-8.42,4.27-12.14-.16-6.58-3.7-9.79-10.62-9.63Z"/>
    <path d="M900.76,0l43.16,14.17-65.51,194.38-43.16-14.17L900.76,0Z"/>
    <path d="M1078.43,62.83l-67.42,199.49-43.16-14.17,40.92-121.33c-20.62,27.52-42.53,54.23-65.72,80.12l-43.16-14.17,47.52-142.01,43.16,14.17-26.71,79.94c12.97-15.34,25.48-31.05,37.51-47.14,12.03-16.08,23.16-32.44,33.41-49.07l43.66,14.15Z"/>
    <path d="M1068.74,146.92l42.59,11.65-15.14,44.7-42.59-11.65,15.14-44.7Z"/>
  </g>
</svg>